<svg width="1728" height="982" viewBox="0 0 1728 982" fill="none" xmlns="http://www.w3.org/2000/svg">
<rect width="1728" height="982" fill="#1D4ED8"/>
<path d="M1170 897C1170 858.34 1201.34 827 1240 827H1728V982H1240C1201.34 982 1170 950.66 1170 912V897Z" fill="white"/>
<path d="M1207.88 877.312V869H1257.41V877.312H1237.44V933H1227.81V877.312H1207.88ZM1262.62 933V885H1271.65V892.625H1272.15C1273.02 890.042 1274.57 888.01 1276.77 886.531C1279 885.031 1281.52 884.281 1284.34 884.281C1284.92 884.281 1285.61 884.302 1286.4 884.344C1287.21 884.385 1287.85 884.437 1288.3 884.5V893.437C1287.93 893.333 1287.26 893.219 1286.3 893.094C1285.35 892.948 1284.39 892.875 1283.43 892.875C1281.22 892.875 1279.25 893.344 1277.52 894.281C1275.82 895.198 1274.46 896.479 1273.46 898.125C1272.46 899.75 1271.96 901.604 1271.96 903.687V933H1262.62ZM1309.93 934.063C1306.89 934.063 1304.14 933.5 1301.68 932.375C1299.22 931.229 1297.27 929.573 1295.84 927.406C1294.42 925.24 1293.71 922.583 1293.71 919.437C1293.71 916.729 1294.23 914.5 1295.27 912.75C1296.32 911 1297.72 909.615 1299.49 908.594C1301.26 907.573 1303.24 906.802 1305.43 906.281C1307.62 905.76 1309.85 905.365 1312.12 905.094C1314.99 904.76 1317.33 904.49 1319.12 904.281C1320.91 904.052 1322.21 903.687 1323.02 903.188C1323.84 902.687 1324.24 901.875 1324.24 900.75V900.531C1324.24 897.802 1323.47 895.687 1321.93 894.187C1320.41 892.687 1318.14 891.937 1315.12 891.937C1311.97 891.937 1309.49 892.635 1307.68 894.031C1305.89 895.406 1304.65 896.937 1303.96 898.625L1295.18 896.625C1296.22 893.708 1297.74 891.354 1299.74 889.562C1301.76 887.75 1304.09 886.437 1306.71 885.625C1309.34 884.792 1312.1 884.375 1314.99 884.375C1316.91 884.375 1318.94 884.604 1321.09 885.063C1323.25 885.5 1325.27 886.312 1327.15 887.5C1329.04 888.687 1330.6 890.385 1331.8 892.594C1333.01 894.781 1333.62 897.625 1333.62 901.125V933H1324.49V926.437H1324.12C1323.51 927.646 1322.61 928.833 1321.4 930C1320.19 931.167 1318.64 932.135 1316.74 932.906C1314.85 933.677 1312.58 934.063 1309.93 934.063ZM1311.96 926.562C1314.54 926.562 1316.75 926.052 1318.59 925.031C1320.44 924.01 1321.85 922.677 1322.8 921.031C1323.78 919.365 1324.27 917.583 1324.27 915.688V909.5C1323.94 909.833 1323.29 910.146 1322.34 910.437C1321.4 910.708 1320.33 910.948 1319.12 911.156C1317.91 911.344 1316.73 911.521 1315.59 911.688C1314.44 911.833 1313.48 911.958 1312.71 912.062C1310.9 912.292 1309.24 912.677 1307.74 913.219C1306.26 913.76 1305.08 914.542 1304.18 915.562C1303.3 916.562 1302.87 917.896 1302.87 919.562C1302.87 921.875 1303.72 923.625 1305.43 924.812C1307.14 925.979 1309.32 926.562 1311.96 926.562ZM1346.06 933V885H1355.41V933H1346.06ZM1350.78 877.594C1349.16 877.594 1347.76 877.052 1346.59 875.969C1345.45 874.865 1344.88 873.552 1344.88 872.031C1344.88 870.49 1345.45 869.177 1346.59 868.094C1347.76 866.99 1349.16 866.437 1350.78 866.437C1352.41 866.437 1353.79 866.99 1354.94 868.094C1356.1 869.177 1356.69 870.49 1356.69 872.031C1356.69 873.552 1356.1 874.865 1354.94 875.969C1353.79 877.052 1352.41 877.594 1350.78 877.594ZM1377.32 904.5V933H1367.98V885H1376.95V892.812H1377.54C1378.64 890.271 1380.37 888.229 1382.73 886.687C1385.1 885.146 1388.09 884.375 1391.7 884.375C1394.97 884.375 1397.83 885.063 1400.29 886.438C1402.75 887.792 1404.65 889.812 1406.01 892.5C1407.36 895.187 1408.04 898.51 1408.04 902.469V933H1398.7V903.594C1398.7 900.115 1397.79 897.396 1395.98 895.437C1394.16 893.458 1391.67 892.469 1388.51 892.469C1386.34 892.469 1384.41 892.937 1382.73 893.875C1381.06 894.812 1379.74 896.187 1378.76 898C1377.8 899.792 1377.32 901.958 1377.32 904.5ZM1441.26 933.969C1436.53 933.969 1432.46 932.958 1429.04 930.938C1425.64 928.896 1423.02 926.031 1421.16 922.344C1419.33 918.635 1418.41 914.292 1418.41 909.312C1418.41 904.396 1419.33 900.062 1421.16 896.312C1423.02 892.562 1425.6 889.635 1428.91 887.531C1432.25 885.427 1436.14 884.375 1440.6 884.375C1443.31 884.375 1445.93 884.823 1448.48 885.719C1451.02 886.615 1453.3 888.021 1455.32 889.937C1457.34 891.854 1458.93 894.344 1460.1 897.406C1461.27 900.448 1461.85 904.146 1461.85 908.5V911.812H1423.7V904.812H1452.7C1452.7 902.354 1452.2 900.177 1451.2 898.281C1450.2 896.365 1448.79 894.854 1446.98 893.75C1445.18 892.646 1443.08 892.094 1440.66 892.094C1438.04 892.094 1435.75 892.74 1433.79 894.031C1431.85 895.302 1430.35 896.969 1429.29 899.031C1428.25 901.073 1427.73 903.292 1427.73 905.688V911.156C1427.73 914.365 1428.29 917.094 1429.41 919.344C1430.56 921.594 1432.15 923.312 1434.2 924.5C1436.24 925.667 1438.62 926.25 1441.35 926.25C1443.12 926.25 1444.74 926 1446.2 925.5C1447.65 924.979 1448.91 924.208 1449.98 923.187C1451.04 922.167 1451.85 920.906 1452.41 919.406L1461.26 921C1460.55 923.604 1459.28 925.885 1457.45 927.844C1455.63 929.781 1453.35 931.292 1450.6 932.375C1447.87 933.438 1444.76 933.969 1441.26 933.969ZM1472.22 933V885H1481.25V892.625H1481.75C1482.63 890.042 1484.17 888.01 1486.38 886.531C1488.6 885.031 1491.13 884.281 1493.94 884.281C1494.52 884.281 1495.21 884.302 1496 884.344C1496.81 884.385 1497.45 884.437 1497.91 884.5V893.437C1497.53 893.333 1496.86 893.219 1495.91 893.094C1494.95 892.948 1493.99 892.875 1493.03 892.875C1490.82 892.875 1488.85 893.344 1487.13 894.281C1485.42 895.198 1484.06 896.479 1483.06 898.125C1482.06 899.75 1481.56 901.604 1481.56 903.687V933H1472.22ZM1535.44 933H1525.19L1548.22 869H1559.38L1582.41 933H1572.16L1554.06 880.625H1553.56L1535.44 933ZM1537.16 907.937H1570.41V916.062H1537.16V907.937ZM1590.9 951V885H1600.02V892.781H1600.8C1601.35 891.781 1602.13 890.625 1603.15 889.312C1604.17 888 1605.59 886.854 1607.4 885.875C1609.21 884.875 1611.61 884.375 1614.59 884.375C1618.46 884.375 1621.92 885.354 1624.96 887.313C1628 889.271 1630.39 892.094 1632.12 895.781C1633.87 899.469 1634.74 903.906 1634.74 909.094C1634.74 914.281 1633.88 918.729 1632.15 922.437C1630.42 926.125 1628.04 928.969 1625.02 930.969C1622 932.948 1618.55 933.938 1614.68 933.938C1611.76 933.938 1609.38 933.448 1607.52 932.469C1605.69 931.49 1604.25 930.344 1603.21 929.031C1602.17 927.719 1601.37 926.552 1600.8 925.531H1600.24V951H1590.9ZM1600.05 909C1600.05 912.375 1600.54 915.333 1601.52 917.875C1602.5 920.417 1603.92 922.406 1605.77 923.844C1607.63 925.26 1609.9 925.969 1612.59 925.969C1615.38 925.969 1617.71 925.229 1619.59 923.75C1621.46 922.25 1622.88 920.219 1623.84 917.656C1624.82 915.094 1625.3 912.208 1625.3 909C1625.3 905.833 1624.83 902.99 1623.87 900.469C1622.93 897.948 1621.51 895.958 1619.62 894.5C1617.74 893.042 1615.4 892.312 1612.59 892.312C1609.88 892.312 1607.59 893.01 1605.71 894.406C1603.86 895.802 1602.45 897.75 1601.49 900.25C1600.53 902.75 1600.05 905.667 1600.05 909ZM1645.21 951V885H1654.34V892.781H1655.12C1655.66 891.781 1656.44 890.625 1657.46 889.312C1658.48 888 1659.9 886.854 1661.71 885.875C1663.52 884.875 1665.92 884.375 1668.9 884.375C1672.77 884.375 1676.23 885.354 1679.27 887.313C1682.32 889.271 1684.7 892.094 1686.43 895.781C1688.18 899.469 1689.05 903.906 1689.05 909.094C1689.05 914.281 1688.19 918.729 1686.46 922.437C1684.73 926.125 1682.36 928.969 1679.34 930.969C1676.32 932.948 1672.87 933.938 1668.99 933.938C1666.08 933.938 1663.69 933.448 1661.84 932.469C1660 931.49 1658.57 930.344 1657.52 929.031C1656.48 927.719 1655.68 926.552 1655.12 925.531H1654.55V951H1645.21ZM1654.37 909C1654.37 912.375 1654.86 915.333 1655.84 917.875C1656.82 920.417 1658.23 922.406 1660.09 923.844C1661.94 925.26 1664.21 925.969 1666.9 925.969C1669.69 925.969 1672.02 925.229 1673.9 923.75C1675.77 922.25 1677.19 920.219 1678.15 917.656C1679.13 915.094 1679.62 912.208 1679.62 909C1679.62 905.833 1679.14 902.99 1678.18 900.469C1677.24 897.948 1675.83 895.958 1673.93 894.5C1672.05 893.042 1669.71 892.312 1666.9 892.312C1664.19 892.312 1661.9 893.01 1660.02 894.406C1658.17 895.802 1656.76 897.75 1655.8 900.25C1654.85 902.75 1654.37 905.667 1654.37 909Z" fill="#1D4ED8"/>
<path d="M564.88 573.683C555.513 573.683 547.451 572.455 540.694 569.998C533.989 567.541 528.511 564.29 524.263 560.246C520.014 556.202 516.841 551.775 514.742 546.963L534.475 538.824C535.857 541.077 537.7 543.457 540.003 545.965C542.358 548.524 545.531 550.7 549.524 552.491C553.568 554.283 558.763 555.179 565.111 555.179C573.812 555.179 581.004 553.054 586.686 548.806C592.368 544.609 595.209 537.903 595.209 528.689V505.501H593.75C592.368 508.009 590.372 510.799 587.761 513.87C585.202 516.942 581.67 519.603 577.165 521.856C572.661 524.108 566.8 525.234 559.582 525.234C550.266 525.234 541.871 523.059 534.398 518.708C526.976 514.305 521.089 507.83 516.738 499.282C512.439 490.682 510.289 480.112 510.289 467.571C510.289 455.03 512.413 444.281 516.662 435.323C520.961 426.365 526.848 419.506 534.321 414.746C541.795 409.934 550.266 407.528 559.736 407.528C567.056 407.528 572.968 408.757 577.472 411.214C581.977 413.62 585.483 416.435 587.991 419.66C590.551 422.885 592.522 425.725 593.904 428.182H595.593V409.064H618.09V529.611C618.09 539.746 615.735 548.064 611.026 554.564C606.317 561.065 599.944 565.877 591.907 568.999C583.922 572.122 574.913 573.683 564.88 573.683ZM564.65 506.192C571.253 506.192 576.833 504.657 581.388 501.585C585.995 498.463 589.476 494.01 591.83 488.225C594.236 482.39 595.439 475.403 595.439 467.264C595.439 459.33 594.262 452.343 591.907 446.303C589.553 440.263 586.097 435.553 581.542 432.175C576.986 428.745 571.355 427.031 564.65 427.031C557.74 427.031 551.981 428.822 547.374 432.405C542.767 435.937 539.286 440.749 536.932 446.84C534.628 452.932 533.477 459.74 533.477 467.264C533.477 474.993 534.654 481.776 537.009 487.611C539.363 493.447 542.844 498.002 547.451 501.278C552.109 504.554 557.842 506.192 564.65 506.192ZM671.837 456.975V527H648.879V369.752H671.529V428.259H672.988C675.752 421.912 679.975 416.87 685.657 413.133C691.339 409.397 698.761 407.528 707.924 407.528C716.011 407.528 723.075 409.192 729.115 412.519C735.207 415.846 739.916 420.811 743.243 427.415C746.622 433.967 748.311 442.157 748.311 451.985V527H725.353V454.749C725.353 446.098 723.127 439.393 718.673 434.632C714.22 429.82 708.026 427.415 700.092 427.415C694.666 427.415 689.803 428.566 685.504 430.87C681.255 433.173 677.902 436.552 675.445 441.005C673.04 445.407 671.837 450.731 671.837 456.975ZM829.776 529.38C818.156 529.38 808.149 526.898 799.754 521.932C791.411 516.916 784.961 509.878 780.405 500.818C775.901 491.706 773.649 481.034 773.649 468.8C773.649 456.719 775.901 446.072 780.405 436.859C784.961 427.645 791.308 420.453 799.447 415.283C807.637 410.113 817.209 407.528 828.163 407.528C834.818 407.528 841.267 408.629 847.512 410.83C853.757 413.031 859.362 416.486 864.327 421.195C869.293 425.905 873.208 432.021 876.075 439.546C878.941 447.019 880.375 456.105 880.375 466.803V474.942H786.625V457.743H857.878C857.878 451.703 856.649 446.354 854.192 441.696C851.735 436.987 848.28 433.276 843.827 430.563C839.425 427.85 834.255 426.493 828.317 426.493C821.867 426.493 816.237 428.08 811.425 431.254C806.665 434.376 802.979 438.471 800.369 443.539C797.809 448.555 796.529 454.007 796.529 459.893V473.33C796.529 481.213 797.912 487.918 800.676 493.447C803.491 498.975 807.407 503.198 812.423 506.115C817.44 508.982 823.301 510.415 830.006 510.415C834.357 510.415 838.324 509.801 841.907 508.572C845.49 507.293 848.587 505.399 851.198 502.891C853.808 500.382 855.805 497.286 857.187 493.6L878.916 497.516C877.175 503.914 874.053 509.519 869.549 514.331C865.095 519.092 859.49 522.803 852.733 525.464C846.028 528.075 838.375 529.38 829.776 529.38ZM956.676 529.38C945.057 529.38 935.049 526.898 926.655 521.932C918.311 516.916 911.861 509.878 907.306 500.818C902.801 491.706 900.549 481.034 900.549 468.8C900.549 456.719 902.801 446.072 907.306 436.859C911.861 427.645 918.209 420.453 926.348 415.283C934.538 410.113 944.11 407.528 955.064 407.528C961.718 407.528 968.168 408.629 974.413 410.83C980.658 413.031 986.263 416.486 991.228 421.195C996.193 425.905 1000.11 432.021 1002.98 439.546C1005.84 447.019 1007.28 456.105 1007.28 466.803V474.942H913.525V457.743H984.778C984.778 451.703 983.55 446.354 981.093 441.696C978.636 436.987 975.18 433.276 970.727 430.563C966.325 427.85 961.155 426.493 955.217 426.493C948.768 426.493 943.137 428.08 938.325 431.254C933.565 434.376 929.879 438.471 927.269 443.539C924.71 448.555 923.43 454.007 923.43 459.893V473.33C923.43 481.213 924.812 487.918 927.576 493.447C930.391 498.975 934.307 503.198 939.324 506.115C944.34 508.982 950.201 510.415 956.906 510.415C961.257 510.415 965.224 509.801 968.808 508.572C972.391 507.293 975.488 505.399 978.098 502.891C980.709 500.382 982.705 497.286 984.087 493.6L1005.82 497.516C1004.08 503.914 1000.95 509.519 996.449 514.331C991.996 519.092 986.391 522.803 979.634 525.464C972.928 528.075 965.276 529.38 956.676 529.38ZM1032.75 527V409.064H1054.94V427.799H1056.17C1058.32 421.451 1062.1 416.46 1067.53 412.826C1073.01 409.141 1079.2 407.298 1086.11 407.298C1087.54 407.298 1089.23 407.349 1091.18 407.451C1093.17 407.554 1094.74 407.682 1095.86 407.835V429.795C1094.94 429.539 1093.3 429.257 1090.95 428.95C1088.59 428.592 1086.24 428.413 1083.88 428.413C1078.46 428.413 1073.62 429.564 1069.37 431.868C1065.17 434.12 1061.85 437.268 1059.39 441.312C1056.93 445.305 1055.7 449.86 1055.7 454.979V527H1032.75ZM1161.18 529.38C1150.13 529.38 1140.48 526.846 1132.24 521.779C1124 516.711 1117.6 509.622 1113.04 500.51C1108.49 491.399 1106.21 480.752 1106.21 468.569C1106.21 456.336 1108.49 445.637 1113.04 436.475C1117.6 427.312 1124 420.197 1132.24 415.13C1140.48 410.062 1150.13 407.528 1161.18 407.528C1172.24 407.528 1181.89 410.062 1190.13 415.13C1198.37 420.197 1204.77 427.312 1209.33 436.475C1213.88 445.637 1216.16 456.336 1216.16 468.569C1216.16 480.752 1213.88 491.399 1209.33 500.51C1204.77 509.622 1198.37 516.711 1190.13 521.779C1181.89 526.846 1172.24 529.38 1161.18 529.38ZM1161.26 510.108C1168.43 510.108 1174.36 508.214 1179.07 504.426C1183.78 500.638 1187.26 495.596 1189.52 489.3C1191.82 483.004 1192.97 476.068 1192.97 468.493C1192.97 460.968 1191.82 454.058 1189.52 447.762C1187.26 441.414 1183.78 436.321 1179.07 432.482C1174.36 428.643 1168.43 426.724 1161.26 426.724C1154.04 426.724 1148.05 428.643 1143.29 432.482C1138.58 436.321 1135.08 441.414 1132.77 447.762C1130.52 454.058 1129.4 460.968 1129.4 468.493C1129.4 476.068 1130.52 483.004 1132.77 489.3C1135.08 495.596 1138.58 500.638 1143.29 504.426C1148.05 508.214 1154.04 510.108 1161.26 510.108Z" fill="white"/>
</svg>
