<svg width="747" height="342" viewBox="0 0 747 342" fill="none" xmlns="http://www.w3.org/2000/svg">
<path d="M74.8802 296.683C65.5129 296.683 57.4509 295.455 50.6941 292.998C43.9885 290.541 38.5115 287.29 34.2629 283.246C30.0143 279.202 26.8407 274.775 24.742 269.963L44.4748 261.824C45.8569 264.077 47.6996 266.457 50.0031 268.965C52.3577 271.524 55.5313 273.7 59.524 275.491C63.5678 277.283 68.7633 278.179 75.1106 278.179C83.8125 278.179 91.0043 276.054 96.6861 271.806C102.368 267.609 105.209 260.903 105.209 251.689V228.501H103.75C102.368 231.009 100.372 233.799 97.7611 236.87C95.2017 239.942 91.6697 242.603 87.1652 244.856C82.6607 247.108 76.7998 248.234 69.5823 248.234C60.2662 248.234 51.8714 246.059 44.398 241.708C36.9758 237.305 31.0893 230.83 26.7383 222.282C22.4386 213.682 20.2887 203.112 20.2887 190.571C20.2887 178.03 22.413 167.281 26.6615 158.323C30.9613 149.365 36.8479 142.506 44.3213 137.746C51.7946 132.934 60.2662 130.528 69.7359 130.528C77.0557 130.528 82.9679 131.757 87.4724 134.214C91.9769 136.62 95.4832 139.435 97.9914 142.66C100.551 145.885 102.522 148.725 103.904 151.182H105.593V132.064H128.09V252.611C128.09 262.746 125.735 271.064 121.026 277.564C116.317 284.065 109.944 288.877 101.907 291.999C93.922 295.122 84.913 296.683 74.8802 296.683ZM74.6499 229.192C81.2531 229.192 86.8325 227.657 91.3882 224.585C95.9951 221.463 99.4758 217.01 101.83 211.225C104.236 205.39 105.439 198.403 105.439 190.264C105.439 182.33 104.262 175.343 101.907 169.303C99.5526 163.263 96.0975 158.553 91.5418 155.175C86.9861 151.745 81.3555 150.031 74.6499 150.031C67.7396 150.031 61.981 151.822 57.3741 155.405C52.7672 158.937 49.2864 163.749 46.9318 169.84C44.6284 175.932 43.4767 182.74 43.4767 190.264C43.4767 197.993 44.654 204.776 47.0086 210.611C49.3632 216.447 52.844 221.002 57.4509 224.278C62.1089 227.554 67.8419 229.192 74.6499 229.192ZM181.837 179.975V250H158.879V92.7518H181.529V151.259H182.988C185.752 144.912 189.975 139.87 195.657 136.133C201.339 132.397 208.761 130.528 217.924 130.528C226.011 130.528 233.075 132.192 239.115 135.519C245.207 138.846 249.916 143.811 253.243 150.415C256.622 156.967 258.311 165.157 258.311 174.985V250H235.353V177.749C235.353 169.098 233.127 162.393 228.673 157.632C224.22 152.82 218.026 150.415 210.092 150.415C204.666 150.415 199.803 151.566 195.504 153.87C191.255 156.173 187.902 159.552 185.445 164.005C183.04 168.407 181.837 173.731 181.837 179.975ZM339.776 252.38C328.156 252.38 318.149 249.898 309.754 244.932C301.411 239.916 294.961 232.878 290.405 223.818C285.901 214.706 283.649 204.034 283.649 191.8C283.649 179.719 285.901 169.072 290.405 159.859C294.961 150.645 301.308 143.453 309.447 138.283C317.637 133.113 327.209 130.528 338.163 130.528C344.818 130.528 351.267 131.629 357.512 133.83C363.757 136.031 369.362 139.486 374.327 144.195C379.293 148.905 383.208 155.021 386.075 162.546C388.941 170.019 390.375 179.105 390.375 189.803V197.942H296.625V180.743H367.878C367.878 174.703 366.649 169.354 364.192 164.696C361.735 159.987 358.28 156.276 353.827 153.563C349.425 150.85 344.255 149.493 338.317 149.493C331.867 149.493 326.237 151.08 321.425 154.254C316.665 157.376 312.979 161.471 310.369 166.539C307.809 171.555 306.529 177.007 306.529 182.893V196.33C306.529 204.213 307.912 210.918 310.676 216.447C313.491 221.975 317.407 226.198 322.423 229.115C327.44 231.982 333.301 233.415 340.006 233.415C344.357 233.415 348.324 232.801 351.907 231.572C355.49 230.293 358.587 228.399 361.198 225.891C363.808 223.382 365.805 220.286 367.187 216.6L388.916 220.516C387.175 226.914 384.053 232.519 379.549 237.331C375.095 242.092 369.49 245.803 362.733 248.464C356.028 251.075 348.375 252.38 339.776 252.38ZM466.676 252.38C455.057 252.38 445.049 249.898 436.655 244.932C428.311 239.916 421.861 232.878 417.306 223.818C412.801 214.706 410.549 204.034 410.549 191.8C410.549 179.719 412.801 169.072 417.306 159.859C421.861 150.645 428.209 143.453 436.348 138.283C444.538 133.113 454.11 130.528 465.064 130.528C471.718 130.528 478.168 131.629 484.413 133.83C490.658 136.031 496.263 139.486 501.228 144.195C506.193 148.905 510.109 155.021 512.975 162.546C515.842 170.019 517.275 179.105 517.275 189.803V197.942H423.525V180.743H494.778C494.778 174.703 493.55 169.354 491.093 164.696C488.636 159.987 485.18 156.276 480.727 153.563C476.325 150.85 471.155 149.493 465.217 149.493C458.768 149.493 453.137 151.08 448.325 154.254C443.565 157.376 439.879 161.471 437.269 166.539C434.71 171.555 433.43 177.007 433.43 182.893V196.33C433.43 204.213 434.812 210.918 437.576 216.447C440.391 221.975 444.307 226.198 449.324 229.115C454.34 231.982 460.201 233.415 466.906 233.415C471.257 233.415 475.224 232.801 478.808 231.572C482.391 230.293 485.488 228.399 488.098 225.891C490.709 223.382 492.705 220.286 494.087 216.6L515.816 220.516C514.076 226.914 510.953 232.519 506.449 237.331C501.996 242.092 496.391 245.803 489.634 248.464C482.928 251.075 475.276 252.38 466.676 252.38ZM542.747 250V132.064H564.937V150.799H566.166C568.315 144.451 572.103 139.46 577.529 135.826C583.006 132.141 589.2 130.298 596.11 130.298C597.544 130.298 599.233 130.349 601.178 130.451C603.174 130.554 604.735 130.682 605.862 130.835V152.795C604.94 152.539 603.302 152.257 600.948 151.95C598.593 151.592 596.238 151.413 593.884 151.413C588.458 151.413 583.621 152.564 579.372 154.868C575.175 157.12 571.847 160.268 569.39 164.312C566.933 168.305 565.705 172.86 565.705 177.979V250H542.747ZM671.183 252.38C660.127 252.38 650.478 249.846 642.237 244.779C633.995 239.711 627.597 232.622 623.041 223.51C618.486 214.399 616.208 203.752 616.208 191.569C616.208 179.336 618.486 168.637 623.041 159.475C627.597 150.312 633.995 143.197 642.237 138.13C650.478 133.062 660.127 130.528 671.183 130.528C682.24 130.528 691.889 133.062 700.13 138.13C708.371 143.197 714.769 150.312 719.325 159.475C723.881 168.637 726.159 179.336 726.159 191.569C726.159 203.752 723.881 214.399 719.325 223.51C714.769 232.622 708.371 239.711 700.13 244.779C691.889 249.846 682.24 252.38 671.183 252.38ZM671.26 233.108C678.426 233.108 684.364 231.214 689.073 227.426C693.783 223.638 697.263 218.596 699.516 212.3C701.819 206.004 702.971 199.068 702.971 191.493C702.971 183.968 701.819 177.058 699.516 170.762C697.263 164.414 693.783 159.321 689.073 155.482C684.364 151.643 678.426 149.724 671.26 149.724C664.043 149.724 658.054 151.643 653.293 155.482C648.584 159.321 645.078 164.414 642.774 170.762C640.522 177.058 639.396 183.968 639.396 191.493C639.396 199.068 640.522 206.004 642.774 212.3C645.078 218.596 648.584 223.638 653.293 227.426C658.054 231.214 664.043 233.108 671.26 233.108Z" fill="white"/>
</svg>
