<svg width="12" height="14" viewBox="0 0 12 14" fill="none" xmlns="http://www.w3.org/2000/svg">
<path d="M4 10.6667C3.63333 10.6667 3.31956 10.5362 3.05867 10.2753C2.79778 10.0144 2.66711 9.70044 2.66667 9.33333V1.33333C2.66667 0.966667 2.79733 0.652889 3.05867 0.392C3.32 0.131111 3.63378 0.000444444 4 0H10C10.3667 0 10.6807 0.130667 10.942 0.392C11.2033 0.653333 11.3338 0.967111 11.3333 1.33333V9.33333C11.3333 9.7 11.2029 10.014 10.942 10.2753C10.6811 10.5367 10.3671 10.6671 10 10.6667H4ZM4 9.33333H10V1.33333H4V9.33333ZM1.33333 13.3333C0.966667 13.3333 0.652889 13.2029 0.392 12.942C0.131111 12.6811 0.000444444 12.3671 0 12V2.66667H1.33333V12H8.66667V13.3333H1.33333Z" fill="#565555"/>
</svg>
