<svg width="35" height="35" viewBox="0 0 35 35" fill="none" xmlns="http://www.w3.org/2000/svg">
<g clip-path="url(#clip0_31_1249)">
<path d="M4.8125 14.7178H30.1875V20.286H4.8125V14.7178Z" fill="#F4D80E"/>
<path d="M26.2227 8.75H8.77734C6.14984 8.75 4.8125 10.7088 4.8125 13.125V14.7159H30.1875V13.125C30.1875 10.7088 28.8502 8.75 26.2227 8.75Z" fill="#128807"/>
<path d="M4.8125 21.8731C4.8125 24.2893 6.14984 26.2481 8.77734 26.2481H26.2227C28.8502 26.2481 30.1875 24.2893 30.1875 21.8731V20.2822H4.8125V21.8731Z" fill="#EC1C24"/>
<path fill-rule="evenodd" clip-rule="evenodd" d="M13.7389 18.9984C13.5696 18.6814 13.4221 18.3556 13.3329 18.0056C13.0601 16.9338 13.1759 15.9084 13.6953 14.93C13.7101 14.9014 13.7243 14.8724 13.7381 14.8433C13.9499 14.5001 14.1901 14.1799 14.4855 13.9035C15.1758 13.2584 15.9866 12.8734 16.9282 12.7914C18.2882 12.6733 19.4376 13.1223 20.3788 14.1107C20.5894 14.3326 20.7599 14.5852 20.922 14.8429C21.0901 15.1603 21.2384 15.4868 21.3268 15.8364C21.602 16.919 21.4819 17.9531 20.9494 18.9359C20.9391 18.9562 20.93 18.9777 20.9208 18.9976C20.7127 19.3348 20.4776 19.651 20.1869 19.9239C19.3753 20.6835 18.4162 21.086 17.3053 21.0673C15.763 21.0391 14.5882 20.3411 13.7663 19.0369C13.7575 19.0238 13.7484 19.011 13.7389 18.9984Z" fill="#095FAF"/>
<path fill-rule="evenodd" clip-rule="evenodd" d="M18.4446 17.035L19.6713 16.1413C19.7054 16.1167 19.7451 16.0956 19.7728 16.0654C19.9632 15.8605 20.2062 15.8764 20.4691 15.9003C20.2895 16.0323 20.1214 16.1556 19.9524 16.2781C19.5001 16.6083 19.05 16.9396 18.5953 17.2661C18.541 17.3055 18.541 17.3401 18.5584 17.3942C18.7162 17.8762 18.874 18.3595 19.0298 18.8435C19.0413 18.8793 19.0615 18.9139 19.054 18.9779C18.9045 18.8363 18.7103 18.7822 18.6417 18.5543C18.4153 17.8082 18.1663 17.0696 17.9256 16.3279L17.9102 16.277C17.9994 16.277 18.0806 16.2777 18.1627 16.2762C18.2154 16.2758 18.2123 16.3203 18.2214 16.3505C18.2963 16.5745 18.3677 16.7988 18.4446 17.035Z" fill="#FBDC09"/>
<path fill-rule="evenodd" clip-rule="evenodd" d="M15.9072 19.2251C15.9568 19.0732 15.9984 18.9443 16.0393 18.8158C16.0489 18.7881 16.0674 18.7643 16.092 18.7482C16.7565 18.265 17.4198 17.781 18.0863 17.2969C18.0958 17.2898 18.1089 17.2858 18.1236 17.2778C18.1454 17.3415 18.1624 17.4035 18.1878 17.4628C18.2128 17.5236 18.2037 17.559 18.1466 17.598C17.9713 17.7193 17.8 17.8478 17.6276 17.9735C17.6089 17.9862 17.5867 17.9949 17.578 18.024C18.0074 18.3366 18.4324 18.6607 18.8729 18.961C19.0656 19.0931 19.1992 19.2454 19.2377 19.4769C19.2417 19.5039 19.2722 19.5373 19.2488 19.5576C19.2159 19.5846 19.1909 19.5413 19.1691 19.5258C18.5898 19.1065 18.0125 18.6844 17.4373 18.2594C17.3592 18.2018 17.31 18.2006 17.2307 18.259C16.8001 18.5796 16.3644 18.893 15.9092 19.2251" fill="#FBDC09"/>
<path fill-rule="evenodd" clip-rule="evenodd" d="M17.2327 17.7879C17.1562 17.8424 17.0841 17.9327 17.0083 17.9359C16.9397 17.9399 16.8656 17.8504 16.7942 17.7991C16.6535 17.6973 16.5131 17.5942 16.3609 17.4845L16.1876 18.0107C16.0556 18.4195 15.9224 18.8288 15.7927 19.2388C15.7759 19.3012 15.7362 19.3548 15.6817 19.3892C15.5885 19.4484 15.5068 19.528 15.3871 19.5877L16.0564 17.5238C16.125 17.3111 16.125 17.3119 15.9469 17.1822L14.7872 16.337C14.767 16.3223 14.7416 16.3136 14.7297 16.277C14.8745 16.277 15.0156 16.2754 15.156 16.2774C15.1758 16.2782 15.1968 16.2945 15.2146 16.3072C15.8811 16.7924 16.5468 17.2777 17.2129 17.7637C17.2181 17.7669 17.2212 17.7732 17.2319 17.7879" fill="#FBDC09"/>
<path fill-rule="evenodd" clip-rule="evenodd" d="M17.131 14.2153C17.1829 14.3724 17.2242 14.5001 17.2678 14.6294C17.2765 14.6548 17.271 14.6799 17.2626 14.7045C17.0065 15.4956 16.7504 16.2859 16.4934 17.0766C16.4919 17.0818 16.4867 17.0849 16.4768 17.0953C16.4157 17.0503 16.3547 17.003 16.2908 16.9608C16.2445 16.9294 16.2627 16.896 16.275 16.859C16.3404 16.659 16.4015 16.4573 16.4709 16.2597C16.4962 16.1877 16.4871 16.1678 16.4066 16.1686C15.8278 16.1714 15.2489 16.169 14.6696 16.1725C14.5958 16.1746 14.5237 16.1499 14.4666 16.1029C14.3814 16.0357 14.2922 15.9733 14.1812 15.8918H14.3116C15.0384 15.8918 15.7663 15.8902 16.4931 15.8933C16.568 15.8937 16.5961 15.8715 16.6191 15.8003C16.7837 15.2785 16.9546 14.7598 17.131 14.2153Z" fill="#FBDC09"/>
<path fill-rule="evenodd" clip-rule="evenodd" d="M19.8063 15.9133C19.7004 15.9917 19.593 16.0685 19.4867 16.1488C19.455 16.1727 19.4209 16.1711 19.3856 16.1711C18.5835 16.1711 17.7838 16.1711 16.979 16.1719C16.9151 16.1723 16.8941 16.1635 16.9187 16.0927C16.9829 15.8943 16.9797 15.8927 17.1883 15.8927H17.7802C17.6962 15.6318 17.6157 15.3792 17.5344 15.129C17.4274 14.7993 17.3215 14.47 17.2121 14.1423C17.1891 14.0815 17.1891 14.0145 17.2121 13.9537C17.2501 13.8483 17.2835 13.741 17.3203 13.624C17.3544 13.6554 17.3568 13.6912 17.3671 13.7227C17.5931 14.4175 17.8199 15.1123 18.0423 15.8087C18.0641 15.876 18.0947 15.8946 18.1633 15.8946C18.6771 15.8915 19.1921 15.8931 19.7056 15.8931H19.7991L19.8047 15.9133" fill="#FBDC09"/>
<path fill-rule="evenodd" clip-rule="evenodd" d="M17.4007 19.3456V20.1614C17.4007 20.2095 17.4059 20.2477 17.3343 20.2504C17.2595 20.2516 17.2591 20.2143 17.2591 20.1598V18.5275C17.2591 18.4806 17.2543 18.4416 17.3267 18.44C17.4011 18.4384 17.4015 18.4758 17.4015 18.5291C17.3999 18.8011 17.4007 19.0732 17.4007 19.3456Z" fill="#F4D80E"/>
<path fill-rule="evenodd" clip-rule="evenodd" d="M15.8984 17.4328C15.8948 17.4782 15.852 17.4726 15.8262 17.4817C15.3643 17.6329 14.902 17.7828 14.4386 17.9332C14.3833 17.9503 14.3284 17.9687 14.274 17.9884C14.2256 18.0071 14.1979 18.0111 14.1761 17.9451C14.1543 17.8783 14.1872 17.8695 14.2336 17.8548C14.7522 17.6866 15.2696 17.5167 15.7866 17.3481C15.8584 17.3246 15.9016 17.3588 15.8984 17.4328ZM18.8074 17.3278L18.872 17.3481C19.3898 17.5167 19.9069 17.6866 20.4251 17.8548C20.4715 17.8691 20.504 17.8779 20.483 17.9451C20.4611 18.0111 20.4338 18.0043 20.3854 17.9884L18.8229 17.4793C18.7939 17.4698 18.7436 17.4706 18.7658 17.4129C18.7781 17.3823 18.7761 17.3437 18.8074 17.3278ZM16.4856 15.6387C16.4678 15.6757 16.4313 15.6916 16.4008 15.7126C16.3667 15.7349 16.3579 15.6951 16.346 15.6772C16.1585 15.4211 15.9729 15.1642 15.7862 14.9068C15.6447 14.71 15.5039 14.5123 15.358 14.3186C15.3199 14.2677 15.3501 14.2538 15.383 14.2299C15.4147 14.2061 15.4373 14.185 15.473 14.2347C15.7997 14.6905 16.1288 15.1423 16.4571 15.5965C16.4666 15.6096 16.4753 15.6228 16.4856 15.6387ZM19.3276 14.2776C19.3121 14.2991 19.3014 14.3158 19.2887 14.3313L18.3209 15.6681C18.2944 15.7067 18.2765 15.7337 18.2266 15.6924C18.1865 15.6593 18.1667 15.6411 18.2055 15.5882C18.5342 15.1391 18.8597 14.6877 19.1868 14.2375C19.1995 14.22 19.2071 14.181 19.2431 14.2068C19.2737 14.2287 19.309 14.245 19.3276 14.2776Z" fill="#F4D80E"/>
</g>
<defs>
<clipPath id="clip0_31_1249">
<rect width="25.375" height="17.5" fill="white" transform="translate(4.8125 8.75)"/>
</clipPath>
</defs>
</svg>
