<svg width="20" height="20" viewBox="0 0 20 20" fill="none" xmlns="http://www.w3.org/2000/svg">
<path d="M1.66675 10C1.66675 10.8766 1.81713 11.7181 2.09351 12.5M2.09351 12.5H9.16675M2.09351 12.5C3.12311 15.413 5.9012 17.5 9.16675 17.5C7.87993 17.5 6.82018 14.5833 6.68201 10.8333M10.8448 7.5H17.918M17.918 7.5C16.8884 4.58702 14.1103 2.5 10.8448 2.5C12.1789 2.5 13.2689 5.63501 13.341 9.58333M17.918 7.5C18.1503 8.15723 18.2936 8.8565 18.3334 9.58333" stroke="black" stroke-width="1.25" stroke-linecap="round" stroke-linejoin="round"/>
<path d="M1.66675 4.41429C1.66675 3.49898 1.66675 3.04133 1.8229 2.68641C1.9885 2.31003 2.27392 2.00751 2.62905 1.832C2.96392 1.6665 3.39573 1.6665 4.25934 1.6665H5.00008C6.57143 1.6665 7.35711 1.6665 7.84526 2.18388C8.33342 2.70125 8.33342 3.53396 8.33342 5.19937V7.08193C8.33342 7.80839 8.33342 8.17161 8.11336 8.29644C7.8933 8.42125 7.60814 8.21977 7.03783 7.8168L6.95094 7.75541C6.53413 7.46091 6.32573 7.31365 6.08954 7.23786C5.85335 7.16207 5.60288 7.16207 5.10194 7.16207H4.25934C3.39573 7.16207 2.96392 7.16207 2.62905 6.99657C2.27392 6.82106 1.9885 6.51855 1.8229 6.14216C1.66675 5.78725 1.66675 5.3296 1.66675 4.41429Z" stroke="black" stroke-width="1.25"/>
<path d="M18.3334 14.4143C18.3334 13.499 18.3334 13.0413 18.1772 12.6864C18.0117 12.31 17.7262 12.0075 17.3711 11.832C17.0362 11.6665 16.6044 11.6665 15.7408 11.6665H15.0001C13.4287 11.6665 12.6431 11.6665 12.1549 12.1839C11.6667 12.7013 11.6667 13.5339 11.6667 15.1993V17.0819C11.6667 17.8084 11.6667 18.1716 11.8868 18.2964C12.1068 18.4213 12.392 18.2198 12.9623 17.8168L13.0492 17.7554C13.466 17.4609 13.6744 17.3137 13.9106 17.2378C14.1468 17.1621 14.3972 17.1621 14.8982 17.1621H15.7408C16.6044 17.1621 17.0362 17.1621 17.3711 16.9966C17.7262 16.8211 18.0117 16.5186 18.1772 16.1422C18.3334 15.7873 18.3334 15.3296 18.3334 14.4143Z" stroke="black" stroke-width="1.25"/>
</svg>
