<svg width="15" height="15" viewBox="0 0 15 15" fill="none" xmlns="http://www.w3.org/2000/svg">
<g clip-path="url(#clip0_68_482)">
<path d="M5.62499 8.83928H1.07142C0.92934 8.83928 0.793079 8.89572 0.692613 8.99618C0.592147 9.09665 0.535706 9.23291 0.535706 9.37499V13.9286C0.535706 14.0706 0.592147 14.2069 0.692613 14.3074C0.793079 14.4078 0.92934 14.4643 1.07142 14.4643H5.62499C5.76707 14.4643 5.90333 14.4078 6.0038 14.3074C6.10426 14.2069 6.16071 14.0706 6.16071 13.9286V9.37499C6.16071 9.23291 6.10426 9.09665 6.0038 8.99618C5.90333 8.89572 5.76707 8.83928 5.62499 8.83928ZM13.9286 8.83928H9.37499C9.23291 8.83928 9.09665 8.89572 8.99618 8.99618C8.89572 9.09665 8.83928 9.23291 8.83928 9.37499V13.9286C8.83928 14.0706 8.89572 14.2069 8.99618 14.3074C9.09665 14.4078 9.23291 14.4643 9.37499 14.4643H13.9286C14.0706 14.4643 14.2069 14.4078 14.3074 14.3074C14.4078 14.2069 14.4643 14.0706 14.4643 13.9286V9.37499C14.4643 9.23291 14.4078 9.09665 14.3074 8.99618C14.2069 8.89572 14.0706 8.83928 13.9286 8.83928ZM9.78213 0.535706H5.22856C5.08648 0.535706 4.95022 0.592147 4.84976 0.692613C4.74929 0.793079 4.69285 0.92934 4.69285 1.07142V5.62499C4.69285 5.76707 4.74929 5.90333 4.84976 6.0038C4.95022 6.10426 5.08648 6.16071 5.22856 6.16071H9.78213C9.92421 6.16071 10.0605 6.10426 10.1609 6.0038C10.2614 5.90333 10.3178 5.76707 10.3178 5.62499V1.07142C10.3178 0.92934 10.2614 0.793079 10.1609 0.692613C10.0605 0.592147 9.92421 0.535706 9.78213 0.535706Z" stroke="#565555" stroke-width="1.25" stroke-linecap="round" stroke-linejoin="round"/>
</g>
<defs>
<clipPath id="clip0_68_482">
<rect width="15" height="15" fill="white"/>
</clipPath>
</defs>
</svg>
