<svg width="16" height="16" viewBox="0 0 16 16" fill="none" xmlns="http://www.w3.org/2000/svg">
<g clip-path="url(#clip0_68_385)">
<path d="M1.33325 3.99998C1.33325 2.74265 1.33325 2.11465 1.72392 1.72398C2.11459 1.33331 2.74259 1.33331 3.99992 1.33331C5.25725 1.33331 5.88525 1.33331 6.27592 1.72398C6.66658 2.11465 6.66658 2.74265 6.66658 3.99998V5.33331C6.66658 6.59065 6.66658 7.21865 6.27592 7.60931C5.88525 7.99998 5.25725 7.99998 3.99992 7.99998C2.74259 7.99998 2.11459 7.99998 1.72392 7.60931C1.33325 7.21865 1.33325 6.59065 1.33325 5.33331V3.99998ZM1.33325 12.6666C1.33325 12.0453 1.33325 11.7346 1.43459 11.49C1.50159 11.3281 1.59985 11.181 1.72373 11.0571C1.84762 10.9332 1.99471 10.835 2.15659 10.768C2.40125 10.6666 2.71192 10.6666 3.33325 10.6666H4.66659C5.28792 10.6666 5.59859 10.6666 5.84325 10.768C6.00513 10.835 6.15222 10.9332 6.2761 11.0571C6.39999 11.181 6.49824 11.3281 6.56525 11.49C6.66658 11.7346 6.66658 12.0453 6.66658 12.6666C6.66658 13.288 6.66658 13.5986 6.56525 13.8433C6.49824 14.0052 6.39999 14.1523 6.2761 14.2762C6.15222 14.4 6.00513 14.4983 5.84325 14.5653C5.59859 14.6666 5.28792 14.6666 4.66659 14.6666H3.33325C2.71192 14.6666 2.40125 14.6666 2.15659 14.5653C1.99471 14.4983 1.84762 14.4 1.72373 14.2762C1.59985 14.1523 1.50159 14.0052 1.43459 13.8433C1.33325 13.5986 1.33325 13.288 1.33325 12.6666ZM9.33325 10.6666C9.33325 9.40931 9.33325 8.78131 9.72392 8.39065C10.1146 7.99998 10.7426 7.99998 11.9999 7.99998C13.2573 7.99998 13.8853 7.99998 14.2759 8.39065C14.6666 8.78131 14.6666 9.40931 14.6666 10.6666V12C14.6666 13.2573 14.6666 13.8853 14.2759 14.276C13.8853 14.6666 13.2573 14.6666 11.9999 14.6666C10.7426 14.6666 10.1146 14.6666 9.72392 14.276C9.33325 13.8853 9.33325 13.2573 9.33325 12V10.6666ZM9.33325 3.33331C9.33325 2.71198 9.33325 2.40131 9.43459 2.15665C9.50159 1.99477 9.59985 1.84768 9.72373 1.7238C9.84762 1.59991 9.99471 1.50165 10.1566 1.43465C10.4013 1.33331 10.7119 1.33331 11.3333 1.33331H12.6666C13.2879 1.33331 13.5986 1.33331 13.8433 1.43465C14.0051 1.50165 14.1522 1.59991 14.2761 1.7238C14.4 1.84768 14.4982 1.99477 14.5653 2.15665C14.6666 2.40131 14.6666 2.71198 14.6666 3.33331C14.6666 3.95465 14.6666 4.26531 14.5653 4.50998C14.4982 4.67186 14.4 4.81895 14.2761 4.94283C14.1522 5.06672 14.0051 5.16497 13.8433 5.23198C13.5986 5.33331 13.2879 5.33331 12.6666 5.33331H11.3333C10.7119 5.33331 10.4013 5.33331 10.1566 5.23198C9.99471 5.16497 9.84762 5.06672 9.72373 4.94283C9.59985 4.81895 9.50159 4.67186 9.43459 4.50998C9.33325 4.26531 9.33325 3.95465 9.33325 3.33331Z" stroke="#565555" stroke-linecap="round" stroke-linejoin="round"/>
</g>
<defs>
<clipPath id="clip0_68_385">
<rect width="16" height="16" fill="white"/>
</clipPath>
</defs>
</svg>
