<svg width="20" height="20" viewBox="0 0 20 20" fill="none" xmlns="http://www.w3.org/2000/svg">
<path d="M9.99842 1.6665C7.49195 1.6665 5.86674 3.349 3.94468 3.96225C3.16316 4.21161 2.7724 4.33629 2.61425 4.51205C2.45611 4.6878 2.4098 4.94463 2.31719 5.45828C1.32611 10.9548 3.49234 16.0365 8.6585 18.0144C9.21359 18.2269 9.49109 18.3332 10.0012 18.3332C10.5112 18.3332 10.7888 18.2269 11.3438 18.0144C16.5096 16.0364 18.6738 10.9548 17.6824 5.45828C17.5898 4.94454 17.5434 4.68767 17.3853 4.51191C17.2271 4.33615 16.8363 4.21155 16.0548 3.96233C14.132 3.34913 12.505 1.6665 9.99842 1.6665Z" stroke="black" stroke-width="1.25" stroke-linecap="round" stroke-linejoin="round"/>
<path d="M10 5.8335V7.50016" stroke="black" stroke-width="1.25" stroke-linecap="round"/>
</svg>
