<svg width="20" height="20" viewBox="0 0 20 20" fill="none" xmlns="http://www.w3.org/2000/svg">
<path d="M7.49999 16.6667H4.99999C4.11593 16.6667 3.26809 16.3155 2.64297 15.6904C2.01785 15.0653 1.66666 14.2174 1.66666 13.3334V5.83335C1.66666 4.9493 2.01785 4.10145 2.64297 3.47633C3.26809 2.85121 4.11593 2.50002 4.99999 2.50002H14.1667C15.0507 2.50002 15.8986 2.85121 16.5237 3.47633C17.1488 4.10145 17.5 4.9493 17.5 5.83335V8.33335M6.66666 1.66669V3.33335M12.5 1.66669V3.33335M1.66666 6.66669H17.5M15.4167 13.0359L14.1667 14.2859" stroke="#565555" stroke-linecap="round" stroke-linejoin="round"/>
<path d="M14.1667 18.3333C16.4679 18.3333 18.3333 16.4679 18.3333 14.1667C18.3333 11.8655 16.4679 10 14.1667 10C11.8655 10 10 11.8655 10 14.1667C10 16.4679 11.8655 18.3333 14.1667 18.3333Z" stroke="#565555" stroke-linecap="round" stroke-linejoin="round"/>
</svg>
