<svg width="16" height="16" viewBox="0 0 16 16" fill="none" xmlns="http://www.w3.org/2000/svg">
<g clip-path="url(#clip0_68_112)">
<path d="M8.33333 9.99975C10.9967 9.99408 12.7907 9.92208 13.8373 9.86175C14.5293 9.82175 15.088 9.33141 15.168 8.64308C15.2523 7.92008 15.3333 6.83341 15.3333 5.33341C15.3333 3.83341 15.2523 2.74675 15.168 2.02341C15.088 1.33541 14.5293 0.845081 13.8377 0.805081C12.7477 0.742081 10.8477 0.666748 8 0.666748C7.77156 0.666748 7.54933 0.667192 7.33333 0.668081M4.16667 11.3334V15.0001M2 3.16675C2 3.74138 2.22827 4.29248 2.6346 4.69881C3.04093 5.10514 3.59203 5.33341 4.16667 5.33341C4.7413 5.33341 5.2924 5.10514 5.69873 4.69881C6.10506 4.29248 6.33333 3.74138 6.33333 3.16675C6.33333 2.59211 6.10506 2.04101 5.69873 1.63468C5.2924 1.22835 4.7413 1.00008 4.16667 1.00008C3.59203 1.00008 3.04093 1.22835 2.6346 1.63468C2.22827 2.04101 2 2.59211 2 3.16675Z" stroke="#565555" stroke-linecap="round" stroke-linejoin="round"/>
<path d="M9.51301 5.44601C9.72134 5.45801 9.91034 5.57235 9.95501 5.77601C10.003 5.99468 10.0303 6.33435 9.94334 6.81035C9.89567 7.07068 9.67367 7.25768 9.41134 7.29368L6.66667 7.66668L6.06667 14.1067C6.02667 14.5347 5.71667 14.8877 5.29001 14.9367C4.92451 14.9787 4.55691 14.9999 4.18901 15C3.76801 15 3.38801 14.972 3.08301 14.9383C2.63701 14.8887 2.31634 14.5133 2.29201 14.065L2.08601 10.2927C1.7992 10.2779 1.5127 10.2575 1.22667 10.2317C1.0715 10.2176 0.927686 10.1444 0.825043 10.0271C0.7224 9.90991 0.668796 9.75769 0.67534 9.60201C0.71434 8.34535 0.873007 7.19668 1.00501 6.43035C1.10434 5.85435 1.59234 5.43801 2.17634 5.40968C4.49567 5.29701 7.12301 5.30901 9.51301 5.44635V5.44601Z" stroke="#565555" stroke-linecap="round" stroke-linejoin="round"/>
</g>
<defs>
<clipPath id="clip0_68_112">
<rect width="16" height="16" fill="white"/>
</clipPath>
</defs>
</svg>
